<?xml version="1.0" standalone="no"?>
<!DOCTYPE svg PUBLIC "-//W3C//DTD SVG 20010904//EN"
 "http://www.w3.org/TR/2001/REC-SVG-20010904/DTD/svg10.dtd">
<svg version="1.0" xmlns="http://www.w3.org/2000/svg"
 width="1080.000000pt" height="1080.000000pt" viewBox="0 0 1080.000000 1080.000000"
 preserveAspectRatio="xMidYMid meet">

<g transform="translate(0.000000,1080.000000) scale(0.100000,-0.100000)"
fill="#000000" stroke="none">
<path d="M7075 7918 c-39 -70 -64 -160 -65 -230 0 -57 1 -58 60 -120 34 -35
69 -82 80 -106 23 -51 63 -105 136 -183 29 -31 78 -96 110 -145 34 -54 104
-137 174 -209 64 -66 138 -149 163 -184 26 -35 67 -76 92 -92 47 -30 75 -72
75 -113 0 -16 -53 -95 -156 -231 -218 -289 -368 -502 -460 -652 -56 -91 -98
-146 -145 -190 -74 -70 -209 -261 -283 -398 -27 -49 -68 -118 -91 -151 -23
-34 -59 -90 -79 -124 -34 -57 -35 -64 -21 -80 19 -21 19 -50 -1 -78 -14 -21
-14 -22 9 -22 14 0 30 -7 37 -15 11 -14 15 -14 32 2 16 14 23 15 38 5 16 -10
33 -5 105 33 47 25 96 45 109 45 18 0 26 7 31 28 9 37 31 60 65 67 21 5 40 24
72 73 66 101 142 197 264 333 61 68 133 150 160 181 137 160 230 262 314 343
65 61 103 107 122 147 17 32 53 80 85 110 31 29 74 72 97 95 23 24 93 96 156
161 63 65 140 148 170 184 30 35 76 79 102 97 26 18 63 53 83 77 44 53 105
153 105 170 0 7 -23 39 -50 70 -28 32 -53 68 -56 80 -5 20 -9 21 -40 11 -31
-9 -36 -8 -50 11 -17 24 -70 30 -104 12 -15 -8 -28 -3 -67 27 -112 84 -265
225 -538 494 -159 158 -307 301 -327 318 -20 18 -99 60 -175 95 -149 69 -206
90 -268 100 -40 6 -40 6 -70 -46z"/>
<path d="M4952 7250 c-36 -57 -72 -177 -72 -239 0 -38 7 -50 68 -120 37 -43
82 -105 100 -138 18 -32 48 -74 67 -93 60 -60 131 -152 180 -233 26 -43 65
-92 87 -110 52 -41 202 -208 242 -269 17 -26 43 -53 59 -59 46 -19 87 -74 87
-117 0 -32 -15 -57 -100 -169 -285 -375 -420 -566 -527 -742 -43 -71 -84 -123
-128 -163 -67 -62 -206 -257 -283 -400 -23 -42 -78 -131 -122 -199 -77 -118
-91 -151 -70 -164 13 -8 13 -51 0 -76 -9 -16 -7 -19 15 -19 14 0 28 -6 31 -14
5 -12 10 -12 36 2 23 13 32 14 35 5 7 -19 21 -16 77 19 28 17 75 39 105 48 47
15 56 22 65 51 9 27 20 37 51 48 33 11 49 27 93 95 51 79 118 162 310 383 228
263 293 335 400 441 82 81 122 129 144 172 21 42 50 78 96 118 36 31 77 70 91
86 26 29 211 224 333 351 37 39 100 102 140 140 45 43 86 94 105 131 37 69 37
68 -39 151 -21 24 -38 52 -38 64 0 16 -4 19 -17 14 -44 -19 -70 -17 -76 4 -4
16 -13 21 -42 21 -20 0 -45 -5 -56 -11 -18 -9 -31 -2 -92 45 -109 83 -297 258
-552 512 -126 127 -255 250 -285 276 -77 64 -346 185 -451 202 -34 6 -37 4
-67 -44z"/>
<path d="M346 6915 c-5 -11 -8 -26 -7 -32 1 -7 -2 -13 -7 -13 -5 0 -14 -19
-21 -42 -7 -24 -17 -56 -23 -73 -51 -150 -122 -581 -149 -902 -18 -219 -6
-794 20 -1003 82 -646 237 -1162 516 -1720 80 -161 192 -359 271 -480 26 -41
53 -82 59 -91 45 -73 265 -364 285 -379 4 -3 13 -16 20 -29 35 -67 367 -413
560 -585 128 -114 305 -256 318 -256 5 0 17 -9 27 -20 21 -23 310 -219 413
-280 39 -23 72 -46 72 -51 0 -5 7 -9 16 -9 9 0 40 -14 68 -31 170 -105 651
-317 941 -414 157 -53 448 -126 630 -159 423 -75 619 -89 1138 -83 474 6 556
13 962 83 168 30 602 143 695 182 14 6 68 27 120 46 271 99 492 200 755 348
175 97 200 113 320 195 39 27 99 69 135 93 57 39 347 264 360 279 3 3 34 31
70 61 92 77 450 440 450 456 0 7 6 17 13 21 14 9 157 177 157 185 0 3 16 23
35 44 19 21 35 42 35 48 0 5 7 18 17 28 15 17 14 18 -15 18 -26 0 -32 4 -32
21 0 15 -5 19 -16 15 -10 -4 -19 4 -28 25 -13 31 -32 26 -20 -5 4 -12 0 -16
-15 -16 -23 0 -28 19 -9 38 20 20 -2 13 -24 -8 -26 -24 -40 -26 -32 -5 4 8 1
15 -5 15 -6 0 -11 7 -11 15 0 8 -4 15 -10 15 -5 0 -10 -6 -10 -12 0 -9 -3 -10
-8 -2 -4 6 -20 16 -37 22 -17 6 -23 11 -12 11 9 1 17 6 17 12 0 7 -10 9 -25 7
-20 -4 -23 -3 -14 8 16 20 -21 54 -62 58 -19 2 -41 5 -49 9 -48 18 -61 15 -95
-20 -25 -26 -40 -34 -62 -31 -19 2 -27 -1 -25 -10 1 -8 -2 -11 -7 -8 -5 4 -20
-8 -32 -26 -14 -19 -25 -26 -27 -19 -3 8 -16 1 -38 -20 -19 -18 -34 -29 -34
-24 0 5 -11 -2 -25 -15 -14 -13 -25 -20 -25 -16 0 5 -32 -24 -71 -63 -39 -39
-74 -71 -79 -71 -4 0 -18 -10 -31 -21 -26 -23 -108 -90 -124 -101 -40 -29
-131 -103 -133 -110 -2 -4 -8 -8 -14 -8 -6 0 -25 -12 -43 -27 -18 -16 -45 -37
-60 -48 -16 -11 -41 -30 -56 -43 -15 -12 -30 -22 -35 -22 -4 0 -15 -6 -23 -14
-22 -19 -320 -201 -401 -244 -93 -49 -224 -116 -230 -118 -15 -3 -224 -95
-235 -104 -5 -4 -23 -12 -40 -18 -16 -6 -88 -31 -160 -57 -71 -26 -143 -51
-160 -55 -16 -4 -91 -26 -166 -48 -75 -22 -154 -43 -175 -46 -22 -4 -52 -11
-69 -16 -32 -9 -170 -35 -245 -45 -25 -3 -72 -10 -105 -15 -199 -29 -299 -35
-615 -34 -193 0 -375 5 -430 12 -52 7 -135 17 -185 23 -121 14 -424 73 -565
110 -461 122 -892 312 -1280 567 -1041 681 -1737 1764 -1921 2992 -11 80 -25
148 -30 151 -11 6 -16 32 -35 189 -19 148 -19 154 -28 355 -4 94 -12 183 -16
198 -5 15 -6 25 -1 23 9 -6 9 54 -1 69 -3 6 -4 30 -1 55 9 85 12 329 4 334 -4
3 -5 -9 -3 -26 3 -23 1 -29 -8 -23 -8 5 -10 23 -5 62 4 31 3 53 -2 50 -9 -6
-9 50 0 60 4 3 7 13 7 21 0 12 -3 12 -15 2 -12 -10 -15 -10 -16 1 0 8 -2 22
-4 32 -2 9 2 17 8 17 15 0 -6 21 -24 23 -8 2 -20 6 -28 11 -8 5 -16 3 -22 -5
-6 -10 -10 -5 -15 18 -4 18 -10 30 -15 27 -5 -3 -9 2 -9 11 0 11 -5 15 -15 11
-11 -4 -15 1 -15 18 0 18 -7 26 -27 31 -21 5 -24 8 -12 16 7 5 10 9 4 9 -5 0
-16 -4 -24 -9 -12 -8 -12 -12 -2 -25 8 -9 20 -16 27 -16 8 0 14 -4 14 -10 0
-20 -26 -9 -45 20 -11 16 -26 30 -32 30 -7 0 -13 4 -13 9 0 5 6 12 13 14 10 4
10 6 0 6 -7 1 -13 7 -13 15 0 10 -10 14 -28 14 -43 -1 -80 27 -74 57 3 20 0
25 -17 25 -11 0 -21 5 -21 11 0 6 -6 9 -13 6 -13 -5 -31 11 -33 31 -2 27 -4
32 -13 32 -5 0 -11 -8 -13 -17 -3 -15 -8 -13 -32 12 -15 16 -23 31 -17 33 6 2
11 8 11 13 0 14 -28 11 -33 -3 -8 -20 -26 10 -20 33 4 13 -2 21 -20 28 -14 6
-31 20 -37 31 -7 13 -17 19 -26 16 -9 -4 -12 -2 -8 5 4 6 0 15 -7 20 -11 7
-10 9 4 9 9 0 17 5 17 11 0 6 -9 9 -19 6 -13 -3 -21 1 -23 12 -3 13 -5 13 -12
-4z m721 -907 c-3 -8 -6 -5 -6 6 -1 11 2 17 5 13 3 -3 4 -12 1 -19z"/>
<path d="M2844 6584 c-39 -63 -64 -154 -64 -230 0 -59 1 -59 65 -127 36 -37
65 -74 65 -81 0 -19 76 -123 144 -197 34 -37 81 -99 106 -139 25 -40 100 -131
167 -201 66 -71 145 -160 173 -198 31 -42 70 -81 96 -96 46 -27 74 -68 74
-107 0 -15 -70 -117 -187 -274 -229 -305 -320 -434 -423 -601 -55 -89 -104
-152 -159 -208 -80 -81 -211 -266 -269 -380 -16 -33 -58 -103 -93 -155 -34
-52 -75 -117 -90 -144 -26 -46 -26 -50 -10 -77 15 -27 15 -31 -1 -59 -17 -30
-17 -30 6 -30 13 0 29 -7 36 -15 10 -12 15 -12 37 2 24 16 26 16 37 0 11 -14
18 -13 71 19 32 19 82 43 111 52 44 14 54 22 61 47 6 22 20 36 55 52 34 17 54
36 78 75 50 80 137 192 241 307 52 58 128 144 169 192 176 206 252 289 337
369 64 61 96 99 112 135 15 35 52 80 124 151 150 149 314 320 382 400 33 38
79 82 102 98 68 44 193 206 193 250 0 7 -22 38 -49 69 -27 31 -52 66 -56 77
-7 21 -14 22 -55 11 -19 -5 -27 -2 -35 14 -13 24 -56 31 -96 15 -27 -12 -33
-9 -86 31 -109 84 -260 224 -563 524 -288 284 -310 303 -385 339 -157 76 -291
128 -340 133 l-51 5 -30 -48z"/>
<path d="M696 6591 c-3 -5 1 -12 10 -15 22 -8 25 -4 9 11 -8 7 -16 9 -19 4z"/>
<path d="M9150 2600 c0 -5 5 -10 10 -10 6 0 10 5 10 10 0 6 -4 10 -10 10 -5 0
-10 -4 -10 -10z"/>
<path d="M9210 2585 c0 -8 5 -15 10 -15 6 0 10 7 10 15 0 8 -4 15 -10 15 -5 0
-10 -7 -10 -15z"/>
<path d="M9358 2500 c23 -22 42 -26 42 -10 0 6 -7 10 -15 10 -8 0 -15 5 -15
10 0 6 -8 10 -17 10 -14 0 -14 -3 5 -20z"/>
</g>
</svg>
