<svg id="svg" version="1.1" xmlns="http://www.w3.org/2000/svg" xmlns:xlink="http://www.w3.org/1999/xlink" width="400" height="87.99999999999999" viewBox="0, 0, 400,87.99999999999999"><g id="svgg"><path id="path0" d="M39.250 4.777 C 34.886 5.133,30.516 6.156,26.750 7.704 C 23.273 9.133,18.394 12.007,16.641 13.657 C 16.490 13.800,16.115 14.102,15.808 14.330 C 14.651 15.186,10.667 19.342,10.667 19.693 C 10.667 19.770,10.604 19.833,10.528 19.833 C 10.452 19.833,10.158 20.190,9.874 20.625 C 9.591 21.060,9.203 21.582,9.013 21.785 C 8.822 21.987,8.667 22.188,8.667 22.231 C 8.667 22.274,8.385 22.748,8.042 23.284 C 7.698 23.820,7.323 24.407,7.208 24.588 C 7.093 24.769,6.695 25.517,6.323 26.250 C 5.952 26.983,5.588 27.696,5.516 27.833 C 5.152 28.527,5.004 28.866,4.458 30.250 C 4.133 31.075,3.817 31.938,3.756 32.167 C 3.695 32.396,3.583 32.733,3.506 32.917 C 3.296 33.417,2.718 35.705,2.329 37.574 C 1.651 40.834,1.707 51.057,2.419 54.000 C 3.182 57.153,4.008 59.861,4.589 61.109 C 4.723 61.397,4.833 61.687,4.833 61.753 C 4.833 61.984,7.029 66.232,7.511 66.933 C 7.780 67.323,8.000 67.724,8.000 67.822 C 8.000 67.920,8.070 68.000,8.155 68.000 C 8.241 68.000,8.358 68.150,8.416 68.332 C 8.474 68.515,8.612 68.759,8.723 68.874 C 8.833 68.989,9.271 69.571,9.696 70.167 C 10.412 71.172,11.120 72.042,11.743 72.681 C 11.884 72.826,12.000 72.981,12.000 73.025 C 12.000 73.160,14.887 76.000,15.025 76.000 C 15.097 76.000,15.235 76.150,15.333 76.333 C 15.431 76.517,15.575 76.667,15.651 76.667 C 15.728 76.667,16.119 76.968,16.521 77.336 C 17.132 77.897,19.165 79.347,20.421 80.118 C 21.889 81.019,23.460 81.932,23.667 82.004 C 23.804 82.052,24.404 82.328,25.000 82.618 C 26.184 83.194,27.501 83.728,28.667 84.107 C 29.079 84.241,29.567 84.411,29.750 84.486 C 30.587 84.828,32.587 85.331,34.417 85.661 C 37.538 86.223,38.010 86.288,39.167 86.321 C 39.762 86.339,40.321 86.423,40.408 86.510 C 40.626 86.725,46.000 86.716,46.000 86.500 C 46.000 86.408,46.435 86.333,46.971 86.333 C 49.014 86.333,54.989 85.207,56.750 84.489 C 56.933 84.415,57.554 84.188,58.130 83.986 C 58.706 83.784,59.217 83.554,59.265 83.476 C 59.313 83.397,59.486 83.333,59.648 83.333 C 60.161 83.333,65.648 80.469,66.750 79.625 C 66.842 79.555,67.704 78.921,68.667 78.216 C 70.911 76.572,74.572 72.911,76.216 70.667 C 76.921 69.704,77.554 68.842,77.624 68.750 C 77.942 68.330,78.667 67.163,78.667 67.071 C 78.667 67.014,78.806 66.769,78.977 66.526 C 80.485 64.376,82.561 59.214,83.613 55.000 C 84.126 52.944,84.401 41.200,84.001 38.419 C 83.724 36.489,82.947 33.313,82.493 32.250 C 82.414 32.067,82.228 31.542,82.080 31.083 C 81.775 30.144,81.587 29.712,80.560 27.583 C 79.772 25.950,79.036 24.599,78.404 23.629 C 78.182 23.287,78.000 22.963,78.000 22.908 C 78.000 22.854,77.906 22.704,77.792 22.576 C 77.677 22.448,77.377 22.059,77.125 21.713 C 74.582 18.216,69.100 12.667,68.189 12.667 C 68.101 12.667,68.003 12.603,67.972 12.524 C 67.654 11.711,60.510 7.946,57.500 7.007 C 56.813 6.792,56.100 6.560,55.917 6.492 C 54.891 6.109,52.000 5.438,50.250 5.177 C 47.215 4.723,42.160 4.540,39.250 4.777 M47.275 5.737 C 51.400 6.145,55.584 7.181,58.750 8.580 C 80.490 18.184,89.334 42.300,78.798 63.250 C 66.047 88.606,29.670 92.351,11.664 70.161 C -5.939 48.466,3.592 16.013,30.083 7.447 C 33.019 6.498,35.320 6.028,39.000 5.625 C 40.486 5.463,45.130 5.526,47.275 5.737 M39.500 12.848 C 15.020 15.999,2.588 43.813,16.541 64.212 C 28.457 81.631,54.439 83.164,68.145 67.256 C 87.905 44.321,69.314 9.011,39.500 12.848 M58.299 26.747 C 59.363 27.252,59.918 27.701,62.065 29.798 C 65.485 33.138,66.393 33.890,66.834 33.750 C 67.026 33.689,67.289 33.727,67.419 33.835 C 67.549 33.943,67.752 33.999,67.869 33.959 C 67.987 33.920,68.214 34.081,68.373 34.319 C 68.532 34.556,68.755 34.879,68.869 35.038 C 69.159 35.439,68.731 36.150,67.436 37.417 C 65.293 39.514,62.833 42.175,62.833 42.397 C 62.833 42.524,62.654 42.746,62.434 42.890 C 61.960 43.200,58.686 46.893,57.312 48.667 C 55.460 51.058,54.369 51.788,52.801 51.685 C 52.280 51.651,52.514 50.374,53.260 49.185 C 55.048 46.330,55.823 45.199,56.192 44.905 C 56.414 44.728,56.960 43.998,57.404 43.283 C 57.849 42.567,59.027 40.882,60.023 39.537 C 62.104 36.728,62.063 36.865,61.100 35.854 C 59.820 34.509,58.266 32.727,57.791 32.061 C 57.148 31.158,56.275 30.023,55.676 29.313 C 55.062 28.586,55.010 27.779,55.505 26.687 C 55.910 25.795,56.313 25.803,58.299 26.747 M41.041 31.356 C 42.884 31.986,43.371 32.335,46.000 34.908 C 49.544 38.376,50.096 38.833,50.746 38.833 C 51.038 38.833,51.333 38.889,51.401 38.956 C 51.468 39.024,51.624 39.080,51.746 39.081 C 51.869 39.082,52.199 39.372,52.480 39.725 C 53.170 40.593,53.110 40.691,49.845 44.032 C 48.384 45.527,47.014 46.989,46.802 47.282 C 46.590 47.574,45.404 48.913,44.167 50.258 C 42.929 51.602,41.515 53.238,41.025 53.893 C 39.573 55.830,38.186 56.854,37.155 56.750 C 36.932 56.728,36.666 56.700,36.564 56.688 C 36.153 56.641,36.451 55.348,37.116 54.298 C 37.481 53.722,38.035 52.809,38.348 52.269 C 38.661 51.730,39.329 50.821,39.833 50.249 C 40.337 49.677,41.101 48.656,41.529 47.979 C 41.958 47.303,43.063 45.737,43.986 44.500 C 45.874 41.967,45.910 41.851,45.042 41.010 C 44.084 40.083,42.340 38.088,41.869 37.382 C 41.636 37.034,41.159 36.433,40.807 36.045 C 40.455 35.658,40.167 35.264,40.167 35.171 C 40.167 35.077,39.894 34.699,39.561 34.330 C 38.856 33.551,38.834 32.435,39.504 31.494 C 39.923 30.906,39.765 30.920,41.041 31.356 M25.990 36.719 C 27.146 37.206,27.485 37.478,30.083 40.007 C 33.610 43.438,34.313 44.018,34.801 43.890 C 35.003 43.837,35.271 43.879,35.396 43.983 C 35.522 44.087,35.737 44.129,35.874 44.077 C 36.024 44.019,36.162 44.100,36.222 44.282 C 36.277 44.448,36.485 44.785,36.686 45.032 C 37.139 45.589,36.971 45.923,35.526 47.342 C 33.211 49.615,31.028 51.960,30.781 52.438 C 30.633 52.725,30.406 53.001,30.275 53.050 C 29.958 53.172,25.479 58.278,24.643 59.470 C 24.279 59.991,23.835 60.470,23.657 60.536 C 23.479 60.602,23.333 60.771,23.333 60.911 C 23.333 61.052,23.238 61.167,23.123 61.167 C 23.007 61.167,22.643 61.311,22.315 61.487 C 21.828 61.748,21.019 61.839,20.500 61.690 C 20.183 61.600,20.494 60.381,21.083 59.411 C 22.535 57.020,23.647 55.393,24.156 54.917 C 24.449 54.642,24.924 54.006,25.211 53.505 C 25.498 53.004,26.623 51.403,27.711 49.947 C 30.105 46.746,30.005 46.993,29.223 46.202 C 27.775 44.739,25.237 41.690,24.268 40.250 C 23.959 39.792,23.548 39.274,23.353 39.099 C 22.826 38.625,22.950 37.431,23.638 36.364 C 23.932 35.906,24.131 35.937,25.990 36.719 " stroke="none" fill="#f8f3fb" fill-rule="evenodd"></path><path id="path1" d="M150.000 18.815 C 148.255 19.382,146.640 20.794,145.883 22.417 L 145.417 23.417 145.369 31.715 L 145.321 40.014 145.815 40.507 L 146.308 41.000 151.630 41.000 L 156.951 41.000 157.386 40.598 C 158.026 40.004,158.022 40.058,157.967 31.485 L 157.917 23.565 157.288 22.293 C 155.942 19.572,152.593 17.973,150.000 18.815 M172.103 18.847 C 170.340 19.275,168.776 20.530,167.860 22.250 L 167.417 23.083 167.367 29.218 L 167.318 35.352 167.843 35.843 L 168.369 36.333 173.443 36.333 C 180.028 36.333,179.833 36.433,179.833 33.058 L 179.833 31.333 184.468 31.333 C 189.676 31.333,190.328 31.444,192.135 32.631 C 197.734 36.309,196.642 44.494,190.237 46.863 C 189.327 47.200,188.882 47.234,184.542 47.294 L 179.833 47.360 179.833 45.774 C 179.833 42.551,180.068 42.667,173.515 42.667 L 168.196 42.667 167.765 43.179 L 167.333 43.692 167.333 54.059 L 167.333 64.426 167.892 65.592 C 169.920 69.824,175.839 70.441,178.578 66.707 C 179.417 65.564,179.701 64.437,179.795 61.875 L 179.877 59.667 183.897 59.670 L 187.917 59.674 188.612 61.295 C 188.994 62.187,189.624 63.667,190.011 64.583 C 192.377 70.187,199.164 70.859,201.685 65.738 C 202.754 63.567,202.630 62.443,200.881 58.430 L 199.798 55.943 200.524 55.348 C 214.125 44.213,209.025 22.960,191.833 19.135 C 190.072 18.743,173.525 18.501,172.103 18.847 M238.583 18.765 C 226.601 20.482,218.214 27.734,216.050 38.250 C 215.496 40.939,215.616 40.994,221.967 40.998 C 227.938 41.001,227.530 41.136,228.653 38.778 C 231.035 33.779,235.290 31.001,240.570 31.000 C 242.762 31.000,244.031 31.307,247.000 32.555 C 254.841 35.852,259.649 25.716,252.253 21.484 C 249.096 19.678,242.027 18.272,238.583 18.765 M268.458 18.842 C 264.536 19.800,263.667 21.779,263.667 29.750 C 263.667 36.987,263.035 36.334,270.033 36.333 L 275.083 36.332 275.583 35.932 L 276.083 35.532 276.142 33.433 L 276.201 31.333 280.821 31.333 C 285.253 31.333,285.489 31.350,286.611 31.731 C 294.017 34.250,293.944 44.266,286.500 46.894 C 285.698 47.178,284.994 47.227,280.875 47.289 L 276.167 47.360 276.167 45.804 C 276.167 42.523,276.471 42.679,270.031 42.672 C 264.475 42.666,264.338 42.685,263.918 43.497 C 263.564 44.182,263.546 63.047,263.898 64.546 C 265.179 69.989,272.979 70.828,275.519 65.796 C 275.989 64.865,276.023 64.661,276.118 62.237 L 276.218 59.667 280.253 59.667 L 284.288 59.667 285.579 62.699 C 286.289 64.367,287.041 65.998,287.250 66.324 C 288.761 68.680,291.888 69.761,294.547 68.846 C 295.757 68.429,297.333 67.304,297.333 66.856 C 297.333 66.752,297.398 66.667,297.477 66.667 C 297.934 66.667,298.583 64.563,298.583 63.083 C 298.583 61.583,298.507 61.288,297.588 59.250 C 297.464 58.975,297.089 58.115,296.755 57.339 L 296.147 55.927 296.615 55.590 C 304.953 49.578,307.178 36.846,301.404 28.186 C 301.136 27.784,300.795 27.274,300.647 27.053 C 298.230 23.441,293.224 20.248,288.234 19.135 C 286.433 18.733,269.906 18.488,268.458 18.842 M318.596 19.017 C 316.451 19.755,315.057 21.196,314.433 23.322 C 314.008 24.768,314.052 29.893,314.495 30.621 C 314.960 31.382,314.155 31.349,330.667 31.297 L 345.750 31.250 346.667 30.810 C 352.027 28.240,351.633 20.898,346.033 19.011 C 344.450 18.478,320.149 18.483,318.596 19.017 M357.458 18.848 C 351.695 20.206,350.873 27.920,356.195 30.699 L 357.250 31.250 362.042 31.301 L 366.833 31.352 366.833 35.583 L 366.833 39.815 367.235 40.282 L 367.637 40.750 372.610 40.801 C 380.018 40.876,379.333 41.401,379.333 35.645 L 379.333 31.352 384.125 31.301 L 388.917 31.250 389.897 30.762 C 395.275 28.083,394.436 20.179,388.632 18.840 C 387.730 18.632,358.342 18.639,357.458 18.848 M112.417 19.319 C 102.908 20.563,95.211 29.356,95.172 39.019 C 95.167 40.171,95.207 40.328,95.606 40.727 L 96.045 41.167 101.364 41.167 L 106.682 41.167 107.084 40.764 C 107.508 40.341,107.528 40.274,107.809 38.412 C 108.859 31.465,117.977 29.284,121.998 35.017 C 123.406 37.024,123.396 36.974,123.465 42.538 L 123.526 47.492 109.888 47.538 C 94.577 47.589,95.532 47.506,95.171 48.809 C 94.940 49.640,94.948 62.432,95.180 64.104 C 96.001 70.008,103.545 71.577,106.745 66.508 C 107.383 65.497,107.667 64.091,107.667 61.934 L 107.667 60.000 115.583 60.000 L 123.500 60.000 123.500 61.864 C 123.500 64.857,124.030 66.375,125.609 67.908 C 128.562 70.776,133.639 69.817,135.525 66.035 L 136.083 64.917 136.083 50.917 C 136.083 41.174,136.026 36.663,135.896 36.083 C 133.318 24.595,123.837 17.825,112.417 19.319 M153.183 22.196 C 153.538 22.396,154.036 22.858,154.289 23.223 L 154.750 23.888 154.800 30.944 L 154.850 38.000 151.668 38.000 L 148.487 38.000 148.535 30.849 L 148.583 23.697 149.088 23.074 C 150.110 21.811,151.839 21.440,153.183 22.196 M192.000 22.317 C 197.940 24.092,202.205 27.945,204.195 33.333 C 206.871 40.581,204.429 48.602,198.096 53.364 C 196.158 54.821,196.118 55.102,197.414 58.099 C 199.597 63.142,199.600 63.157,199.010 64.314 C 198.313 65.681,197.136 66.301,195.574 66.124 C 194.131 65.962,193.697 65.384,191.912 61.250 C 189.699 56.124,190.649 56.635,183.456 56.700 L 177.855 56.750 177.361 57.223 L 176.868 57.696 176.809 60.902 C 176.743 64.491,176.650 64.798,175.361 65.682 C 174.453 66.304,172.469 66.269,171.612 65.616 C 170.366 64.667,170.422 65.147,170.370 54.958 L 170.322 45.833 173.578 45.833 L 176.833 45.833 176.833 47.511 C 176.833 50.418,176.639 50.333,183.307 50.333 C 189.188 50.333,190.442 50.182,192.454 49.227 C 201.798 44.793,200.459 31.214,190.417 28.559 C 189.388 28.286,188.563 28.250,183.444 28.250 L 177.638 28.250 177.236 28.718 C 176.857 29.158,176.833 29.307,176.833 31.259 L 176.833 33.333 173.572 33.333 L 170.310 33.333 170.363 28.610 L 170.417 23.887 170.870 23.235 C 171.345 22.552,171.791 22.208,172.495 21.984 C 173.598 21.632,190.685 21.923,192.000 22.317 M245.750 22.391 C 251.235 23.679,253.427 25.361,252.834 27.829 C 252.298 30.064,250.335 30.702,247.655 29.513 C 246.794 29.130,245.825 28.749,245.503 28.666 C 245.180 28.583,244.467 28.400,243.917 28.260 C 242.225 27.829,238.783 27.910,236.675 28.430 C 231.682 29.663,228.150 32.629,225.827 37.542 L 225.610 38.000 222.396 38.000 L 219.183 38.000 219.406 37.292 C 222.903 26.222,234.392 19.724,245.750 22.391 M288.333 22.307 C 303.131 26.676,306.412 44.465,294.117 53.663 C 292.495 54.876,292.475 55.103,293.737 57.917 C 293.860 58.192,294.166 58.904,294.417 59.500 C 294.668 60.096,294.970 60.808,295.087 61.083 C 296.308 63.944,295.231 66.083,292.569 66.083 C 290.558 66.083,290.340 65.848,288.508 61.696 C 286.559 57.277,286.480 57.126,285.992 56.874 C 285.680 56.713,284.229 56.673,279.861 56.706 L 274.139 56.750 273.653 57.294 L 273.167 57.839 273.154 60.711 C 273.140 63.841,273.035 64.363,272.254 65.191 C 270.836 66.694,268.257 66.442,267.148 64.693 L 266.667 63.935 266.667 54.884 L 266.667 45.833 269.917 45.833 L 273.167 45.833 273.167 47.406 C 273.167 50.423,272.966 50.333,279.700 50.333 C 286.471 50.333,287.740 50.107,290.250 48.453 C 297.320 43.792,296.515 32.846,288.839 29.286 C 286.817 28.349,286.392 28.296,280.226 28.215 C 272.835 28.118,273.167 27.967,273.167 31.428 L 273.167 33.333 269.917 33.333 L 266.667 33.333 266.667 28.726 L 266.667 24.118 267.115 23.410 C 267.542 22.735,268.187 22.219,268.917 21.969 C 269.896 21.633,287.064 21.933,288.333 22.307 M345.950 22.364 C 347.941 23.681,347.911 26.298,345.890 27.667 L 345.275 28.083 331.304 28.128 L 317.333 28.172 317.333 26.142 C 317.333 23.499,317.855 22.492,319.486 21.991 C 319.723 21.918,325.622 21.871,332.596 21.887 L 345.275 21.917 345.950 22.364 M389.043 22.333 C 390.880 23.554,390.880 26.446,389.043 27.667 L 388.417 28.083 382.917 28.168 C 375.650 28.279,376.333 27.726,376.333 33.494 L 376.333 37.667 373.083 37.667 L 369.833 37.667 369.833 33.348 L 369.833 29.030 369.321 28.598 L 368.808 28.167 363.612 28.166 C 357.885 28.165,357.502 28.113,356.617 27.228 C 355.166 25.777,355.285 23.870,356.915 22.460 C 357.585 21.882,358.208 21.860,373.333 21.888 L 388.417 21.917 389.043 22.333 M118.417 22.423 C 125.773 23.677,131.540 29.405,132.757 36.667 C 133.123 38.855,133.112 63.743,132.744 64.624 C 131.742 67.022,128.570 67.269,127.168 65.059 L 126.667 64.268 126.667 61.205 L 126.667 58.141 126.179 57.654 L 125.692 57.167 115.615 57.167 C 103.318 57.167,104.781 56.662,104.663 60.943 C 104.586 63.761,104.539 64.154,104.210 64.776 C 102.951 67.150,99.698 67.181,98.498 64.830 C 98.183 64.213,98.167 63.841,98.167 57.423 L 98.167 50.667 111.758 50.667 C 126.348 50.667,126.045 50.684,126.495 49.843 C 126.848 49.183,126.714 38.572,126.334 37.086 C 123.568 26.272,108.531 25.672,105.082 36.237 C 104.854 36.937,104.667 37.620,104.667 37.755 C 104.667 37.962,104.166 38.000,101.432 38.000 C 98.441 38.000,98.202 37.978,98.255 37.708 C 98.286 37.548,98.395 36.929,98.498 36.333 C 99.209 32.200,102.349 27.318,105.607 25.283 C 109.873 22.619,114.067 21.682,118.417 22.423 M55.776 26.567 C 55.213 27.426,55.220 28.449,55.791 29.051 C 56.069 29.344,56.341 29.733,56.396 29.917 C 56.451 30.100,56.787 30.550,57.142 30.917 C 57.497 31.283,58.056 31.996,58.385 32.500 C 58.714 33.004,59.662 34.121,60.492 34.983 C 62.343 36.904,62.349 36.694,60.355 39.373 C 59.450 40.589,58.311 42.221,57.824 43.000 C 57.336 43.779,56.592 44.792,56.170 45.250 C 55.748 45.708,55.037 46.683,54.590 47.417 C 54.144 48.150,53.537 49.125,53.243 49.583 C 51.308 52.597,54.607 51.969,56.897 48.887 C 57.699 47.809,60.143 45.012,61.773 43.308 C 62.356 42.698,62.833 42.125,62.833 42.035 C 62.833 41.944,63.452 41.234,64.208 40.457 C 64.965 39.679,65.983 38.621,66.471 38.105 C 66.960 37.589,67.488 37.073,67.646 36.959 C 68.940 36.015,69.020 34.167,67.768 34.167 C 67.631 34.167,67.471 34.087,67.411 33.990 C 67.351 33.893,67.101 33.858,66.856 33.912 C 66.294 34.035,65.245 33.182,61.833 29.826 C 58.689 26.734,56.455 25.531,55.776 26.567 M39.515 31.886 C 38.903 33.151,39.001 33.431,40.917 35.861 C 41.283 36.327,41.816 37.036,42.100 37.438 C 42.384 37.840,43.059 38.641,43.600 39.218 C 44.141 39.795,44.704 40.420,44.851 40.607 C 44.998 40.794,45.279 41.060,45.475 41.197 C 46.171 41.685,45.994 42.117,43.982 44.833 C 42.929 46.254,41.740 47.941,41.340 48.581 C 40.940 49.221,40.427 49.891,40.200 50.069 C 39.815 50.372,38.883 51.743,37.214 54.461 C 36.405 55.778,36.392 56.589,37.179 56.577 C 37.814 56.567,39.141 55.951,39.225 55.627 C 39.268 55.465,39.411 55.333,39.544 55.333 C 39.677 55.333,40.050 54.940,40.373 54.458 C 41.052 53.447,43.261 50.893,45.272 48.795 C 46.039 47.995,46.667 47.264,46.667 47.170 C 46.667 47.077,47.060 46.601,47.542 46.113 C 50.892 42.720,52.667 40.810,52.667 40.600 C 52.667 40.135,51.932 39.180,51.639 39.266 C 51.486 39.310,51.309 39.263,51.246 39.160 C 51.182 39.057,50.955 39.017,50.741 39.071 C 50.242 39.196,49.265 38.390,45.917 35.092 C 43.704 32.912,43.263 32.557,42.083 32.002 C 40.029 31.035,39.929 31.031,39.515 31.886 M23.606 36.738 C 22.836 37.913,23.000 38.429,24.917 40.861 C 25.283 41.327,25.816 42.036,26.100 42.438 C 26.384 42.840,27.059 43.640,27.600 44.214 C 28.141 44.789,28.741 45.445,28.933 45.672 C 29.125 45.898,29.400 46.158,29.542 46.250 C 30.218 46.683,30.066 47.061,28.225 49.525 C 27.243 50.840,26.026 52.550,25.521 53.324 C 25.016 54.098,24.317 55.027,23.966 55.388 C 23.616 55.749,22.981 56.615,22.556 57.314 C 22.130 58.012,21.496 59.035,21.146 59.588 C 19.218 62.630,22.436 62.150,24.727 59.054 C 25.505 58.002,27.882 55.295,29.697 53.393 C 30.322 52.738,30.833 52.128,30.833 52.037 C 30.833 51.946,32.039 50.656,33.512 49.170 C 36.863 45.790,36.961 45.645,36.386 44.891 C 36.152 44.584,35.819 44.333,35.647 44.333 C 35.474 44.333,35.333 44.249,35.333 44.146 C 35.333 44.026,35.152 43.995,34.833 44.058 C 34.216 44.182,33.074 43.252,29.667 39.853 C 26.652 36.846,24.321 35.648,23.606 36.738 M315.210 37.853 C 314.129 38.165,314.167 37.678,314.167 51.272 C 314.167 65.009,314.145 64.731,315.331 66.498 C 317.922 70.363,323.933 69.932,326.083 65.728 L 326.583 64.750 326.632 57.542 L 326.680 50.333 330.972 50.333 C 334.151 50.333,335.499 50.272,336.173 50.096 C 342.948 48.326,342.376 38.812,335.438 37.847 C 333.827 37.623,315.988 37.628,315.210 37.853 M336.031 41.161 C 338.591 42.293,338.620 45.526,336.083 46.891 C 335.447 47.234,335.180 47.252,330.167 47.293 C 327.279 47.316,324.743 47.375,324.531 47.424 C 323.711 47.611,323.667 48.051,323.667 56.053 C 323.667 61.276,323.609 63.617,323.471 64.017 C 322.560 66.659,318.921 66.960,317.665 64.497 C 317.343 63.866,317.333 63.500,317.333 52.340 L 317.333 40.833 326.312 40.833 C 334.873 40.833,335.325 40.849,336.031 41.161 M216.377 47.421 C 215.784 47.837,215.753 48.614,216.251 50.612 C 218.330 58.947,224.632 65.293,233.750 68.233 C 240.130 70.290,250.391 68.677,254.138 65.028 C 258.986 60.306,253.572 52.726,247.268 55.408 C 244.807 56.455,244.265 56.626,242.467 56.920 C 236.399 57.915,230.880 54.628,228.258 48.458 C 227.969 47.777,227.724 47.450,227.415 47.333 C 226.640 47.038,216.812 47.117,216.377 47.421 M367.267 47.779 L 366.822 48.224 366.869 56.487 L 366.917 64.750 367.389 65.647 C 369.876 70.370,376.567 70.310,378.799 65.545 L 379.250 64.583 379.296 56.372 L 379.342 48.161 378.929 47.747 L 378.515 47.333 373.114 47.333 L 367.712 47.333 367.267 47.779 M145.759 48.020 L 145.321 48.540 145.369 56.562 L 145.417 64.583 145.957 65.617 C 148.735 70.935,156.481 69.966,157.827 64.132 C 158.119 62.867,158.049 48.912,157.748 48.330 C 157.328 47.518,157.196 47.500,151.526 47.500 L 146.196 47.500 145.759 48.020 M226.040 50.958 C 228.576 56.449,234.205 59.917,240.583 59.917 C 243.703 59.917,245.390 59.526,248.232 58.144 C 249.821 57.371,251.163 57.585,252.136 58.766 C 253.896 60.901,252.657 63.374,249.172 64.683 C 237.002 69.252,224.079 63.468,219.657 51.473 C 219.387 50.742,219.167 50.112,219.167 50.072 C 219.167 50.032,220.614 50.000,222.382 50.000 L 225.597 50.000 226.040 50.958 M376.302 57.125 L 376.250 63.917 375.794 64.692 C 374.576 66.764,371.526 66.649,370.250 64.482 C 369.934 63.946,369.914 63.567,369.866 57.125 L 369.816 50.333 373.085 50.333 L 376.354 50.333 376.302 57.125 M154.800 57.292 L 154.750 64.083 154.346 64.680 C 152.975 66.705,149.873 66.564,148.839 64.429 C 148.515 63.760,148.500 63.427,148.500 57.114 L 148.500 50.500 151.675 50.500 L 154.851 50.500 154.800 57.292 M4.746 56.375 C 4.811 56.581,4.961 57.087,5.080 57.500 C 9.542 72.986,25.779 84.511,43.120 84.498 C 46.893 84.496,53.406 83.615,51.833 83.320 C 51.512 83.260,51.353 83.201,51.479 83.189 C 51.834 83.155,51.368 82.667,50.980 82.667 C 50.807 82.667,50.667 82.563,50.667 82.435 C 50.667 82.300,50.409 82.155,50.049 82.088 C 49.709 82.024,49.311 81.833,49.164 81.664 C 49.017 81.494,48.695 81.305,48.448 81.243 C 48.202 81.181,48.000 81.064,48.000 80.982 C 48.000 80.900,47.882 80.833,47.738 80.833 C 47.594 80.833,47.372 80.740,47.244 80.625 C 47.116 80.510,46.911 80.334,46.789 80.232 C 46.614 80.088,42.619 79.768,41.333 79.795 C 41.196 79.798,40.821 79.738,40.500 79.662 C 40.179 79.586,39.354 79.473,38.667 79.411 C 37.979 79.349,37.290 79.231,37.136 79.149 C 36.982 79.067,36.687 79.000,36.481 79.000 C 36.275 79.000,35.877 78.927,35.595 78.838 C 35.314 78.749,34.558 78.515,33.917 78.318 C 32.534 77.893,30.221 77.044,29.750 76.788 C 29.567 76.689,28.742 76.269,27.917 75.855 C 27.092 75.442,26.379 75.054,26.333 74.993 C 26.246 74.877,25.134 74.131,24.267 73.607 C 23.986 73.436,23.533 73.080,23.263 72.815 C 22.992 72.550,22.699 72.333,22.612 72.333 C 22.382 72.333,17.167 67.062,17.167 66.829 C 17.167 66.720,16.979 66.484,16.750 66.304 C 16.521 66.123,16.333 65.903,16.333 65.814 C 16.333 65.683,15.406 64.337,14.796 63.583 C 14.722 63.492,14.383 63.042,14.042 62.583 C 13.309 61.596,13.031 61.248,12.583 60.759 C 12.175 60.312,10.454 59.167,10.191 59.167 C 10.086 59.167,10.000 59.093,10.000 59.003 C 10.000 58.913,9.813 58.793,9.583 58.735 C 9.354 58.678,9.167 58.567,9.167 58.489 C 9.167 58.411,8.792 58.214,8.333 58.051 C 7.875 57.888,7.500 57.660,7.500 57.544 C 7.500 57.428,7.368 57.333,7.207 57.333 C 7.045 57.333,6.823 57.188,6.712 57.010 C 6.601 56.832,6.376 56.688,6.213 56.689 C 5.457 56.694,4.842 56.369,5.191 56.148 C 5.354 56.045,5.307 56.004,5.022 56.003 C 4.689 56.000,4.646 56.058,4.746 56.375 " stroke="none" fill="#335ceb" fill-rule="evenodd"></path><path id="path2" d="M15.083 16.859 C 12.720 18.151,7.910 24.948,5.842 29.916 C 4.633 32.821,3.161 38.068,3.376 38.710 C 3.407 38.803,3.590 38.138,3.783 37.232 C 3.976 36.325,4.215 35.377,4.313 35.125 C 4.500 34.646,4.833 34.500,4.833 34.897 C 4.833 35.135,5.663 35.776,5.672 35.546 C 5.675 35.475,5.753 35.548,5.847 35.708 C 5.940 35.869,6.123 36.000,6.252 36.000 C 6.382 36.000,6.569 36.150,6.667 36.333 C 6.765 36.517,6.955 36.667,7.089 36.667 C 7.223 36.667,7.333 36.779,7.333 36.917 C 7.333 37.054,7.445 37.167,7.582 37.167 C 7.719 37.167,7.924 37.317,8.039 37.500 C 8.153 37.683,8.304 37.833,8.373 37.833 C 8.443 37.833,8.650 37.983,8.833 38.167 C 9.017 38.350,9.279 38.500,9.417 38.500 C 9.558 38.500,9.667 38.649,9.667 38.844 C 9.667 39.034,9.746 39.336,9.842 39.516 C 9.938 39.696,10.050 40.385,10.090 41.047 C 10.383 45.897,10.540 48.093,10.599 48.153 C 10.636 48.191,10.668 46.991,10.670 45.486 C 10.680 37.186,13.269 30.234,18.827 23.583 C 20.429 21.666,21.040 20.233,20.333 20.048 C 20.150 20.000,20.000 19.895,20.000 19.814 C 20.000 19.733,19.887 19.667,19.750 19.667 C 19.612 19.667,19.500 19.592,19.500 19.500 C 19.500 19.408,19.399 19.333,19.276 19.333 C 19.152 19.333,18.878 19.183,18.667 19.000 C 18.455 18.817,18.219 18.667,18.141 18.667 C 18.064 18.667,18.000 18.547,18.000 18.401 C 18.000 18.255,17.850 18.096,17.667 18.048 C 17.483 18.000,17.333 17.895,17.333 17.814 C 17.333 17.733,17.183 17.667,17.000 17.667 C 16.817 17.667,16.666 17.610,16.666 17.542 C 16.664 17.421,15.638 16.661,15.490 16.672 C 15.450 16.675,15.267 16.759,15.083 16.859 M61.083 29.000 C 61.441 29.367,61.772 29.667,61.818 29.667 C 61.863 29.667,61.608 29.367,61.250 29.000 C 60.892 28.633,60.562 28.333,60.516 28.333 C 60.470 28.333,60.725 28.633,61.083 29.000 M39.039 33.167 C 39.039 33.487,39.073 33.619,39.115 33.458 C 39.157 33.298,39.157 33.035,39.115 32.875 C 39.073 32.715,39.039 32.846,39.039 33.167 M59.333 33.917 C 59.831 34.421,60.276 34.833,60.322 34.833 C 60.368 34.833,59.998 34.421,59.500 33.917 C 59.002 33.412,58.557 33.000,58.511 33.000 C 58.466 33.000,58.835 33.412,59.333 33.917 M44.667 33.719 C 44.667 33.748,44.910 33.991,45.208 34.260 L 45.750 34.750 45.260 34.208 C 44.804 33.703,44.667 33.590,44.667 33.719 M48.000 37.083 C 48.311 37.404,48.603 37.667,48.649 37.667 C 48.695 37.667,48.478 37.404,48.167 37.083 C 47.856 36.762,47.564 36.500,47.518 36.500 C 47.472 36.500,47.689 36.762,48.000 37.083 M66.906 37.708 L 66.417 38.250 66.958 37.760 C 67.256 37.491,67.500 37.248,67.500 37.219 C 67.500 37.090,67.362 37.203,66.906 37.708 M29.000 39.083 C 29.311 39.404,29.603 39.667,29.649 39.667 C 29.695 39.667,29.478 39.404,29.167 39.083 C 28.856 38.762,28.564 38.500,28.518 38.500 C 28.472 38.500,28.689 38.762,29.000 39.083 M3.205 39.500 C 3.205 39.821,3.240 39.952,3.282 39.792 C 3.323 39.631,3.323 39.369,3.282 39.208 C 3.240 39.048,3.205 39.179,3.205 39.500 M2.945 41.150 C 2.883 41.736,2.844 42.673,2.857 43.233 C 2.874 43.950,2.922 43.685,3.021 42.333 C 3.174 40.239,3.123 39.445,2.945 41.150 M24.667 40.885 C 24.667 40.914,24.910 41.158,25.208 41.427 L 25.750 41.917 25.260 41.375 C 24.804 40.870,24.667 40.757,24.667 40.885 M32.000 42.083 C 32.311 42.404,32.603 42.667,32.649 42.667 C 32.695 42.667,32.478 42.404,32.167 42.083 C 31.856 41.762,31.564 41.500,31.518 41.500 C 31.472 41.500,31.689 41.762,32.000 42.083 M61.575 43.542 L 60.917 44.250 61.625 43.591 C 62.284 42.978,62.410 42.833,62.284 42.833 C 62.257 42.833,61.938 43.152,61.575 43.542 M26.833 43.552 C 26.833 43.581,27.077 43.825,27.375 44.094 L 27.917 44.583 27.427 44.042 C 26.971 43.537,26.833 43.423,26.833 43.552 M2.888 47.583 C 2.889 48.225,2.919 48.467,2.955 48.121 C 2.991 47.775,2.990 47.250,2.954 46.955 C 2.917 46.659,2.887 46.942,2.888 47.583 M45.578 48.542 L 44.583 49.583 45.625 48.589 C 46.593 47.664,46.743 47.500,46.620 47.500 C 46.594 47.500,46.125 47.969,45.578 48.542 M33.324 49.458 L 32.750 50.083 33.375 49.509 C 33.957 48.974,34.077 48.833,33.949 48.833 C 33.922 48.833,33.640 49.115,33.324 49.458 M78.000 49.034 C 78.000 49.138,77.898 49.342,77.773 49.487 C 77.648 49.632,77.264 50.575,76.918 51.583 C 71.844 66.385,62.065 75.823,49.667 77.885 L 49.250 77.955 49.671 77.977 C 51.011 78.050,56.532 76.314,59.471 74.897 C 61.899 73.726,65.721 71.390,66.050 70.875 C 66.123 70.760,66.259 70.667,66.351 70.667 C 66.493 70.667,67.733 69.783,68.000 69.493 C 68.827 68.592,70.303 68.355,71.172 68.985 C 71.563 69.268,71.981 69.500,72.100 69.500 C 72.219 69.500,72.377 69.605,72.450 69.734 C 72.523 69.863,72.771 69.994,73.000 70.026 C 73.993 70.163,73.660 70.707,70.897 73.463 C 69.451 74.904,68.752 75.671,69.343 75.167 C 75.937 69.538,81.476 59.835,82.265 52.533 C 82.374 51.525,81.930 50.514,81.548 50.897 C 81.494 50.950,81.307 50.829,81.133 50.627 C 80.883 50.340,80.785 50.309,80.677 50.483 C 80.532 50.719,80.521 50.712,79.425 49.728 C 79.179 49.507,78.908 49.371,78.821 49.424 C 78.735 49.477,78.622 49.410,78.569 49.273 C 78.451 48.965,78.000 48.775,78.000 49.034 M29.500 53.583 C 29.095 53.996,28.801 54.333,28.847 54.333 C 28.893 54.333,29.262 53.996,29.667 53.583 C 30.072 53.171,30.365 52.833,30.319 52.833 C 30.274 52.833,29.905 53.171,29.500 53.583 M27.906 55.375 L 27.417 55.917 27.958 55.427 C 28.463 54.971,28.577 54.833,28.448 54.833 C 28.419 54.833,28.175 55.077,27.906 55.375 M18.500 67.052 C 18.500 67.081,18.744 67.325,19.042 67.594 L 19.583 68.083 19.094 67.542 C 18.638 67.037,18.500 66.923,18.500 67.052 M27.333 74.241 C 27.333 74.287,27.558 74.441,27.833 74.583 C 28.108 74.726,28.333 74.804,28.333 74.759 C 28.333 74.713,28.108 74.559,27.833 74.417 C 27.558 74.274,27.333 74.196,27.333 74.241 M29.500 75.417 C 29.729 75.548,29.992 75.655,30.083 75.655 C 30.175 75.655,30.063 75.548,29.833 75.417 C 29.604 75.286,29.342 75.178,29.250 75.178 C 29.158 75.178,29.271 75.286,29.500 75.417 M40.961 78.454 C 41.261 78.491,41.711 78.490,41.961 78.452 C 42.212 78.414,41.967 78.384,41.417 78.385 C 40.867 78.386,40.662 78.417,40.961 78.454 M45.375 78.453 C 45.627 78.491,46.040 78.491,46.292 78.453 C 46.544 78.415,46.337 78.383,45.833 78.383 C 45.329 78.383,45.123 78.415,45.375 78.453 M62.458 79.762 C 61.835 80.100,61.873 80.241,62.500 79.917 C 62.775 79.774,63.000 79.623,63.000 79.579 C 63.000 79.472,62.982 79.478,62.458 79.762 M45.708 84.615 C 45.869 84.657,46.131 84.657,46.292 84.615 C 46.452 84.573,46.321 84.539,46.000 84.539 C 45.679 84.539,45.548 84.573,45.708 84.615 " stroke="none" fill="#8f81fa" fill-rule="evenodd"></path><path id="path3" d="M39.000 5.625 C 25.631 7.088,13.458 14.738,8.170 25.000 C 7.814 25.690,8.083 25.333,9.174 23.667 C 11.026 20.837,13.954 17.464,15.056 16.890 C 15.519 16.648,16.662 17.111,16.666 17.542 C 16.666 17.610,16.817 17.667,17.000 17.667 C 17.183 17.667,17.333 17.733,17.333 17.814 C 17.333 17.895,17.483 18.000,17.667 18.048 C 17.850 18.096,18.000 18.255,18.000 18.401 C 18.000 18.547,18.064 18.667,18.141 18.667 C 18.219 18.667,18.455 18.817,18.667 19.000 C 18.878 19.183,19.152 19.333,19.276 19.333 C 19.399 19.333,19.500 19.408,19.500 19.500 C 19.500 19.592,19.612 19.667,19.750 19.667 C 19.887 19.667,20.000 19.733,20.000 19.814 C 20.000 19.895,20.150 20.000,20.333 20.048 C 21.039 20.233,20.430 21.664,18.829 23.583 C 17.721 24.912,16.323 26.800,15.744 27.750 C 15.251 28.558,15.711 28.010,16.583 26.750 C 26.665 12.179,46.624 8.274,61.501 17.961 C 78.113 28.779,81.395 51.923,68.442 66.917 C 67.887 67.558,67.644 67.896,67.901 67.667 C 70.801 65.079,74.638 58.235,76.918 51.583 C 77.264 50.575,77.639 49.637,77.751 49.500 C 77.864 49.362,77.991 49.140,78.032 49.005 C 78.092 48.811,78.172 48.836,78.417 49.122 C 78.587 49.320,78.783 49.448,78.852 49.405 C 78.922 49.362,79.179 49.507,79.425 49.728 C 80.521 50.712,80.532 50.719,80.677 50.483 C 80.785 50.309,80.883 50.340,81.133 50.627 C 81.307 50.829,81.494 50.950,81.548 50.897 C 81.601 50.843,81.809 50.953,82.009 51.140 C 82.472 51.571,82.372 52.814,81.661 55.465 C 81.399 56.441,81.211 57.267,81.244 57.299 C 81.383 57.439,82.210 54.165,82.687 51.583 C 83.192 48.849,83.246 42.036,82.784 39.333 C 80.332 24.978,72.139 14.495,58.750 8.580 C 53.549 6.282,44.866 4.983,39.000 5.625 M7.500 26.167 C 7.313 26.533,7.197 26.833,7.243 26.833 C 7.289 26.833,7.480 26.533,7.667 26.167 C 7.854 25.800,7.969 25.500,7.923 25.500 C 7.878 25.500,7.687 25.800,7.500 26.167 M55.167 28.719 C 55.167 28.748,55.410 28.991,55.708 29.260 L 56.250 29.750 55.760 29.208 C 55.304 28.703,55.167 28.590,55.167 28.719 M14.075 30.684 C 13.747 31.335,13.506 31.895,13.539 31.928 C 13.572 31.961,13.876 31.428,14.215 30.744 C 14.554 30.060,14.795 29.500,14.751 29.500 C 14.707 29.500,14.403 30.033,14.075 30.684 M62.583 30.500 C 63.035 30.958,63.442 31.333,63.487 31.333 C 63.533 31.333,63.201 30.958,62.750 30.500 C 62.299 30.042,61.892 29.667,61.846 29.667 C 61.800 29.667,62.132 30.042,62.583 30.500 M43.667 32.719 C 43.667 32.748,43.910 32.991,44.208 33.260 L 44.750 33.750 44.260 33.208 C 43.804 32.703,43.667 32.590,43.667 32.719 M46.500 35.583 C 46.998 36.087,47.443 36.500,47.489 36.500 C 47.534 36.500,47.165 36.087,46.667 35.583 C 46.169 35.079,45.724 34.667,45.678 34.667 C 45.632 34.667,46.002 35.079,46.500 35.583 M30.500 40.583 C 30.998 41.087,31.443 41.500,31.489 41.500 C 31.534 41.500,31.165 41.087,30.667 40.583 C 30.169 40.079,29.724 39.667,29.678 39.667 C 29.632 39.667,30.002 40.079,30.500 40.583 M2.733 45.167 C 2.733 46.496,2.759 47.040,2.790 46.375 C 2.822 45.710,2.822 44.623,2.790 43.958 C 2.759 43.294,2.733 43.837,2.733 45.167 M49.328 44.458 L 48.417 45.417 49.375 44.506 C 50.265 43.659,50.410 43.500,50.286 43.500 C 50.260 43.500,49.829 43.931,49.328 44.458 M55.906 45.208 L 55.417 45.750 55.958 45.260 C 56.463 44.804,56.577 44.667,56.448 44.667 C 56.419 44.667,56.175 44.910,55.906 45.208 M80.867 58.117 C 80.620 58.920,80.739 59.040,81.000 58.250 C 81.110 57.917,81.167 57.612,81.128 57.572 C 81.088 57.533,80.971 57.778,80.867 58.117 M79.694 61.090 C 79.414 61.703,79.468 61.834,79.770 61.277 C 79.911 61.017,79.995 60.773,79.957 60.735 C 79.919 60.696,79.800 60.857,79.694 61.090 M77.833 64.833 C 77.646 65.200,77.531 65.500,77.577 65.500 C 77.622 65.500,77.813 65.200,78.000 64.833 C 78.187 64.467,78.303 64.167,78.257 64.167 C 78.211 64.167,78.020 64.467,77.833 64.833 M76.897 66.375 C 76.323 67.348,76.286 67.431,76.578 67.083 C 76.916 66.680,77.208 66.167,77.099 66.167 C 77.055 66.167,76.964 66.260,76.897 66.375 M20.333 68.917 C 20.831 69.421,21.276 69.833,21.322 69.833 C 21.368 69.833,20.998 69.421,20.500 68.917 C 20.002 68.412,19.557 68.000,19.511 68.000 C 19.466 68.000,19.835 68.412,20.333 68.917 M65.406 70.042 L 64.917 70.583 65.458 70.094 C 65.963 69.638,66.077 69.500,65.948 69.500 C 65.919 69.500,65.675 69.744,65.406 70.042 M12.833 71.583 C 13.144 71.904,13.436 72.167,13.482 72.167 C 13.528 72.167,13.311 71.904,13.000 71.583 C 12.689 71.262,12.397 71.000,12.351 71.000 C 12.305 71.000,12.522 71.262,12.833 71.583 M72.491 72.125 L 71.917 72.750 72.542 72.176 C 72.885 71.860,73.167 71.578,73.167 71.551 C 73.167 71.423,73.026 71.543,72.491 72.125 M15.667 74.417 C 15.978 74.737,16.270 75.000,16.315 75.000 C 16.361 75.000,16.144 74.737,15.833 74.417 C 15.522 74.096,15.230 73.833,15.185 73.833 C 15.139 73.833,15.356 74.096,15.667 74.417 M70.158 74.458 L 69.583 75.083 70.208 74.509 C 70.552 74.193,70.833 73.912,70.833 73.884 C 70.833 73.757,70.692 73.877,70.158 74.458 M42.958 78.455 C 43.348 78.490,43.985 78.490,44.375 78.455 C 44.765 78.420,44.446 78.392,43.667 78.392 C 42.887 78.392,42.569 78.420,42.958 78.455 " stroke="none" fill="#c596f6" fill-rule="evenodd"></path><path id="path4" d="M55.333 28.719 C 55.333 28.748,55.577 28.991,55.875 29.260 L 56.417 29.750 55.927 29.208 C 55.471 28.703,55.333 28.590,55.333 28.719 M64.167 32.052 C 64.167 32.081,64.410 32.325,64.708 32.594 L 65.250 33.083 64.760 32.542 C 64.304 32.037,64.167 31.923,64.167 32.052 M44.000 33.250 C 44.311 33.571,44.603 33.833,44.649 33.833 C 44.695 33.833,44.478 33.571,44.167 33.250 C 43.856 32.929,43.564 32.667,43.518 32.667 C 43.472 32.667,43.689 32.929,44.000 33.250 M4.316 35.125 C 4.219 35.377,3.965 36.371,3.752 37.333 C -0.055 54.511,8.910 72.687,25.083 80.582 C 27.979 81.995,32.200 83.456,34.184 83.731 C 34.587 83.787,34.092 83.614,33.083 83.348 C 31.334 82.886,29.571 82.308,27.442 81.500 C 17.676 77.794,7.906 67.308,5.080 57.500 C 4.961 57.087,4.811 56.581,4.746 56.375 C 4.646 56.058,4.689 56.000,5.022 56.003 C 5.307 56.004,5.354 56.045,5.191 56.148 C 4.842 56.369,5.457 56.694,6.213 56.689 C 6.376 56.688,6.601 56.832,6.712 57.010 C 6.823 57.188,7.045 57.333,7.207 57.333 C 7.368 57.333,7.500 57.428,7.500 57.544 C 7.500 57.660,7.875 57.888,8.333 58.051 C 8.792 58.214,9.167 58.411,9.167 58.489 C 9.167 58.567,9.354 58.678,9.583 58.735 C 9.813 58.793,10.000 58.913,10.000 59.003 C 10.000 59.093,10.086 59.167,10.191 59.167 C 10.454 59.167,12.175 60.312,12.583 60.759 C 13.031 61.248,13.309 61.596,14.042 62.583 C 14.383 63.042,14.722 63.492,14.796 63.583 C 15.406 64.337,16.333 65.683,16.333 65.814 C 16.333 65.903,16.521 66.123,16.750 66.304 C 16.979 66.484,17.167 66.720,17.167 66.829 C 17.167 67.062,22.382 72.333,22.612 72.333 C 22.699 72.333,22.992 72.550,23.263 72.815 C 23.533 73.080,23.986 73.436,24.267 73.607 C 25.134 74.131,26.246 74.877,26.333 74.993 C 26.379 75.054,27.092 75.442,27.917 75.855 C 28.742 76.269,29.567 76.689,29.750 76.788 C 30.221 77.044,32.534 77.893,33.917 78.318 C 34.558 78.515,35.314 78.749,35.595 78.838 C 35.877 78.927,36.275 79.000,36.481 79.000 C 36.687 79.000,36.982 79.067,37.136 79.149 C 37.290 79.231,37.979 79.349,38.667 79.411 C 39.354 79.473,40.179 79.586,40.500 79.662 C 40.821 79.738,41.196 79.798,41.333 79.795 C 42.619 79.768,46.614 80.088,46.789 80.232 C 46.911 80.334,47.116 80.510,47.244 80.625 C 47.372 80.740,47.594 80.833,47.738 80.833 C 47.882 80.833,48.000 80.900,48.000 80.982 C 48.000 81.064,48.202 81.181,48.448 81.243 C 48.695 81.305,49.017 81.494,49.164 81.664 C 49.311 81.833,49.709 82.024,50.049 82.088 C 50.409 82.155,50.667 82.300,50.667 82.435 C 50.667 82.563,50.807 82.667,50.980 82.667 C 51.368 82.667,51.834 83.155,51.479 83.189 C 51.353 83.201,51.512 83.262,51.833 83.325 C 52.403 83.436,52.391 83.444,51.370 83.659 C 50.794 83.780,50.359 83.914,50.402 83.957 C 50.550 84.106,53.920 83.303,55.833 82.662 C 62.037 80.586,66.701 77.688,71.302 73.049 C 73.634 70.699,73.939 70.156,73.000 70.026 C 72.771 69.994,72.523 69.863,72.450 69.734 C 72.377 69.605,72.219 69.500,72.100 69.500 C 71.981 69.500,71.563 69.268,71.172 68.985 C 70.303 68.355,68.827 68.592,68.000 69.493 C 67.733 69.783,66.493 70.667,66.351 70.667 C 66.259 70.667,66.123 70.760,66.050 70.875 C 65.977 70.990,65.681 71.248,65.394 71.450 C 47.091 84.265,23.501 79.077,13.992 60.146 C 11.714 55.612,10.576 50.645,10.253 43.833 C 10.108 40.774,10.017 39.844,9.832 39.498 C 9.741 39.328,9.667 39.034,9.667 38.844 C 9.667 38.649,9.558 38.500,9.417 38.500 C 9.279 38.500,9.017 38.350,8.833 38.167 C 8.650 37.983,8.443 37.833,8.373 37.833 C 8.304 37.833,8.153 37.683,8.039 37.500 C 7.924 37.317,7.719 37.167,7.582 37.167 C 7.445 37.167,7.333 37.054,7.333 36.917 C 7.333 36.779,7.223 36.667,7.089 36.667 C 6.955 36.667,6.765 36.517,6.667 36.333 C 6.569 36.150,6.382 36.000,6.252 36.000 C 6.123 36.000,5.940 35.869,5.847 35.708 C 5.753 35.548,5.675 35.475,5.672 35.546 C 5.663 35.776,4.833 35.135,4.833 34.897 C 4.833 34.499,4.500 34.646,4.316 35.125 M46.333 35.583 C 46.831 36.087,47.276 36.500,47.322 36.500 C 47.368 36.500,46.998 36.087,46.500 35.583 C 46.002 35.079,45.557 34.667,45.511 34.667 C 45.466 34.667,45.835 35.079,46.333 35.583 M27.500 37.719 C 27.500 37.748,27.744 37.991,28.042 38.260 L 28.583 38.750 28.094 38.208 C 27.638 37.703,27.500 37.590,27.500 37.719 M65.906 38.708 L 65.417 39.250 65.958 38.760 C 66.463 38.304,66.577 38.167,66.448 38.167 C 66.419 38.167,66.175 38.410,65.906 38.708 M30.500 40.750 C 31.091 41.346,31.611 41.833,31.657 41.833 C 31.703 41.833,31.257 41.346,30.667 40.750 C 30.076 40.154,29.555 39.667,29.510 39.667 C 29.464 39.667,29.909 40.154,30.500 40.750 M49.161 44.458 L 48.250 45.417 49.208 44.506 C 50.099 43.659,50.243 43.500,50.119 43.500 C 50.093 43.500,49.662 43.931,49.161 44.458 M56.073 45.208 L 55.583 45.750 56.125 45.260 C 56.630 44.804,56.743 44.667,56.615 44.667 C 56.586 44.667,56.342 44.910,56.073 45.208 M44.073 50.042 L 43.583 50.583 44.125 50.094 C 44.630 49.638,44.743 49.500,44.615 49.500 C 44.586 49.500,44.342 49.744,44.073 50.042 M26.240 57.208 L 25.750 57.750 26.292 57.260 C 26.590 56.991,26.833 56.748,26.833 56.719 C 26.833 56.590,26.696 56.703,26.240 57.208 M47.583 84.264 L 45.917 84.479 47.417 84.392 C 48.952 84.303,50.762 84.033,49.750 84.044 C 49.475 84.047,48.500 84.146,47.583 84.264 M37.292 84.284 C 37.498 84.324,37.835 84.324,38.042 84.284 C 38.248 84.245,38.079 84.212,37.667 84.212 C 37.254 84.212,37.085 84.245,37.292 84.284 M38.875 84.453 C 39.127 84.491,39.540 84.491,39.792 84.453 C 40.044 84.415,39.837 84.383,39.333 84.383 C 38.829 84.383,38.623 84.415,38.875 84.453 M41.708 84.624 C 42.419 84.655,43.581 84.655,44.292 84.624 C 45.002 84.593,44.421 84.567,43.000 84.567 C 41.579 84.567,40.998 84.593,41.708 84.624 " stroke="none" fill="#5f69fa" fill-rule="evenodd"></path></g></svg>